<mxfile host="app.diagrams.net" agent="Mozilla/5.0 (Windows NT 10.0; Win64; x64) AppleWebKit/537.36 (KHTML, like Gecko) Chrome/131.0.0.0 Safari/537.36" version="26.0.10">
  <diagram name="Pagina-1" id="j18OGbsCD21qYG4wDr5p">
    <mxGraphModel dx="1050" dy="557" grid="1" gridSize="10" guides="1" tooltips="1" connect="1" arrows="1" fold="1" page="1" pageScale="1" pageWidth="827" pageHeight="1169" math="0" shadow="0">
      <root>
        <mxCell id="0" />
        <mxCell id="1" parent="0" />
        <mxCell id="QfLtUxeJip6HHkZmtq3Q-5" value="" style="edgeStyle=orthogonalEdgeStyle;rounded=0;orthogonalLoop=1;jettySize=auto;html=1;" edge="1" parent="1" source="QfLtUxeJip6HHkZmtq3Q-1" target="QfLtUxeJip6HHkZmtq3Q-4">
          <mxGeometry relative="1" as="geometry" />
        </mxCell>
        <mxCell id="QfLtUxeJip6HHkZmtq3Q-1" value="start" style="ellipse;whiteSpace=wrap;html=1;" vertex="1" parent="1">
          <mxGeometry x="354" width="120" height="80" as="geometry" />
        </mxCell>
        <mxCell id="QfLtUxeJip6HHkZmtq3Q-7" value="" style="edgeStyle=orthogonalEdgeStyle;rounded=0;orthogonalLoop=1;jettySize=auto;html=1;" edge="1" parent="1" source="QfLtUxeJip6HHkZmtq3Q-4" target="QfLtUxeJip6HHkZmtq3Q-6">
          <mxGeometry relative="1" as="geometry" />
        </mxCell>
        <mxCell id="QfLtUxeJip6HHkZmtq3Q-4" value="sum1 = 0,&lt;div&gt;sum2 = 0,&lt;br&gt;&lt;div&gt;counter = 0&lt;/div&gt;&lt;/div&gt;" style="whiteSpace=wrap;html=1;" vertex="1" parent="1">
          <mxGeometry x="354" y="170" width="120" height="60" as="geometry" />
        </mxCell>
        <mxCell id="QfLtUxeJip6HHkZmtq3Q-9" value="" style="edgeStyle=orthogonalEdgeStyle;rounded=0;orthogonalLoop=1;jettySize=auto;html=1;" edge="1" parent="1" source="QfLtUxeJip6HHkZmtq3Q-6" target="QfLtUxeJip6HHkZmtq3Q-8">
          <mxGeometry relative="1" as="geometry" />
        </mxCell>
        <mxCell id="QfLtUxeJip6HHkZmtq3Q-6" value="write &quot;Put your number here&quot;" style="shape=parallelogram;perimeter=parallelogramPerimeter;whiteSpace=wrap;html=1;fixedSize=1;" vertex="1" parent="1">
          <mxGeometry x="354" y="310" width="120" height="60" as="geometry" />
        </mxCell>
        <mxCell id="QfLtUxeJip6HHkZmtq3Q-11" value="" style="edgeStyle=orthogonalEdgeStyle;rounded=0;orthogonalLoop=1;jettySize=auto;html=1;" edge="1" parent="1" source="QfLtUxeJip6HHkZmtq3Q-8" target="QfLtUxeJip6HHkZmtq3Q-10">
          <mxGeometry relative="1" as="geometry" />
        </mxCell>
        <mxCell id="QfLtUxeJip6HHkZmtq3Q-8" value="read n" style="shape=parallelogram;perimeter=parallelogramPerimeter;whiteSpace=wrap;html=1;fixedSize=1;" vertex="1" parent="1">
          <mxGeometry x="354" y="450" width="120" height="60" as="geometry" />
        </mxCell>
        <mxCell id="QfLtUxeJip6HHkZmtq3Q-13" value="" style="edgeStyle=orthogonalEdgeStyle;rounded=0;orthogonalLoop=1;jettySize=auto;html=1;" edge="1" parent="1" source="QfLtUxeJip6HHkZmtq3Q-10" target="QfLtUxeJip6HHkZmtq3Q-12">
          <mxGeometry relative="1" as="geometry" />
        </mxCell>
        <mxCell id="QfLtUxeJip6HHkZmtq3Q-42" value="FALSE" style="edgeLabel;html=1;align=center;verticalAlign=middle;resizable=0;points=[];" vertex="1" connectable="0" parent="QfLtUxeJip6HHkZmtq3Q-13">
          <mxGeometry x="0.0057" y="2" relative="1" as="geometry">
            <mxPoint as="offset" />
          </mxGeometry>
        </mxCell>
        <mxCell id="QfLtUxeJip6HHkZmtq3Q-15" value="" style="edgeStyle=orthogonalEdgeStyle;rounded=0;orthogonalLoop=1;jettySize=auto;html=1;" edge="1" parent="1" source="QfLtUxeJip6HHkZmtq3Q-10" target="QfLtUxeJip6HHkZmtq3Q-14">
          <mxGeometry relative="1" as="geometry" />
        </mxCell>
        <mxCell id="QfLtUxeJip6HHkZmtq3Q-43" value="TRUE" style="edgeLabel;html=1;align=center;verticalAlign=middle;resizable=0;points=[];" vertex="1" connectable="0" parent="QfLtUxeJip6HHkZmtq3Q-15">
          <mxGeometry x="-0.29" y="1" relative="1" as="geometry">
            <mxPoint as="offset" />
          </mxGeometry>
        </mxCell>
        <mxCell id="QfLtUxeJip6HHkZmtq3Q-10" value="&lt;div&gt;n &amp;gt; 0&lt;/div&gt;&lt;div&gt;AND&lt;/div&gt;&lt;div&gt;n % 1 ==0&lt;/div&gt;&lt;div&gt;&lt;br&gt;&lt;/div&gt;" style="rhombus;whiteSpace=wrap;html=1;" vertex="1" parent="1">
          <mxGeometry x="374" y="580" width="80" height="80" as="geometry" />
        </mxCell>
        <mxCell id="QfLtUxeJip6HHkZmtq3Q-39" style="edgeStyle=orthogonalEdgeStyle;rounded=0;orthogonalLoop=1;jettySize=auto;html=1;exitX=0;exitY=0.5;exitDx=0;exitDy=0;entryX=0.5;entryY=0;entryDx=0;entryDy=0;" edge="1" parent="1" source="QfLtUxeJip6HHkZmtq3Q-12" target="QfLtUxeJip6HHkZmtq3Q-37">
          <mxGeometry relative="1" as="geometry" />
        </mxCell>
        <mxCell id="QfLtUxeJip6HHkZmtq3Q-12" value="write &quot;Error number not valid&quot;" style="shape=parallelogram;perimeter=parallelogramPerimeter;whiteSpace=wrap;html=1;fixedSize=1;" vertex="1" parent="1">
          <mxGeometry x="194" y="590" width="120" height="60" as="geometry" />
        </mxCell>
        <mxCell id="QfLtUxeJip6HHkZmtq3Q-21" value="" style="edgeStyle=orthogonalEdgeStyle;rounded=0;orthogonalLoop=1;jettySize=auto;html=1;" edge="1" parent="1" source="QfLtUxeJip6HHkZmtq3Q-14" target="QfLtUxeJip6HHkZmtq3Q-20">
          <mxGeometry relative="1" as="geometry" />
        </mxCell>
        <mxCell id="QfLtUxeJip6HHkZmtq3Q-26" value="TRUE" style="edgeLabel;html=1;align=center;verticalAlign=middle;resizable=0;points=[];" vertex="1" connectable="0" parent="QfLtUxeJip6HHkZmtq3Q-21">
          <mxGeometry x="0.0299" relative="1" as="geometry">
            <mxPoint as="offset" />
          </mxGeometry>
        </mxCell>
        <mxCell id="QfLtUxeJip6HHkZmtq3Q-50" style="edgeStyle=orthogonalEdgeStyle;rounded=0;orthogonalLoop=1;jettySize=auto;html=1;exitX=0;exitY=0.5;exitDx=0;exitDy=0;entryX=1;entryY=0.5;entryDx=0;entryDy=0;" edge="1" parent="1" source="QfLtUxeJip6HHkZmtq3Q-14" target="QfLtUxeJip6HHkZmtq3Q-37">
          <mxGeometry relative="1" as="geometry">
            <Array as="points">
              <mxPoint x="260" y="780" />
              <mxPoint x="260" y="990" />
            </Array>
          </mxGeometry>
        </mxCell>
        <mxCell id="QfLtUxeJip6HHkZmtq3Q-52" value="FALSE" style="edgeLabel;html=1;align=center;verticalAlign=middle;resizable=0;points=[];" vertex="1" connectable="0" parent="QfLtUxeJip6HHkZmtq3Q-50">
          <mxGeometry x="-0.7045" relative="1" as="geometry">
            <mxPoint as="offset" />
          </mxGeometry>
        </mxCell>
        <mxCell id="QfLtUxeJip6HHkZmtq3Q-14" value="1 &amp;lt;= n &amp;lt;= 100" style="rhombus;whiteSpace=wrap;html=1;" vertex="1" parent="1">
          <mxGeometry x="367" y="740" width="94" height="80" as="geometry" />
        </mxCell>
        <mxCell id="QfLtUxeJip6HHkZmtq3Q-23" value="" style="edgeStyle=orthogonalEdgeStyle;rounded=0;orthogonalLoop=1;jettySize=auto;html=1;" edge="1" parent="1" source="QfLtUxeJip6HHkZmtq3Q-20" target="QfLtUxeJip6HHkZmtq3Q-22">
          <mxGeometry relative="1" as="geometry" />
        </mxCell>
        <mxCell id="QfLtUxeJip6HHkZmtq3Q-36" value="TRUE" style="edgeLabel;html=1;align=center;verticalAlign=middle;resizable=0;points=[];" vertex="1" connectable="0" parent="QfLtUxeJip6HHkZmtq3Q-23">
          <mxGeometry x="-0.292" y="1" relative="1" as="geometry">
            <mxPoint as="offset" />
          </mxGeometry>
        </mxCell>
        <mxCell id="QfLtUxeJip6HHkZmtq3Q-47" style="edgeStyle=orthogonalEdgeStyle;rounded=0;orthogonalLoop=1;jettySize=auto;html=1;exitX=0.5;exitY=0;exitDx=0;exitDy=0;entryX=1;entryY=0.5;entryDx=0;entryDy=0;" edge="1" parent="1" source="QfLtUxeJip6HHkZmtq3Q-20" target="QfLtUxeJip6HHkZmtq3Q-37">
          <mxGeometry relative="1" as="geometry">
            <Array as="points">
              <mxPoint x="588" y="720" />
              <mxPoint x="260" y="720" />
              <mxPoint x="260" y="990" />
            </Array>
          </mxGeometry>
        </mxCell>
        <mxCell id="QfLtUxeJip6HHkZmtq3Q-51" value="FALSE" style="edgeLabel;html=1;align=center;verticalAlign=middle;resizable=0;points=[];" vertex="1" connectable="0" parent="QfLtUxeJip6HHkZmtq3Q-47">
          <mxGeometry x="-0.6966" y="-1" relative="1" as="geometry">
            <mxPoint as="offset" />
          </mxGeometry>
        </mxCell>
        <mxCell id="QfLtUxeJip6HHkZmtq3Q-20" value="counter &amp;lt; n" style="rhombus;whiteSpace=wrap;html=1;" vertex="1" parent="1">
          <mxGeometry x="548" y="740" width="80" height="80" as="geometry" />
        </mxCell>
        <mxCell id="QfLtUxeJip6HHkZmtq3Q-28" value="" style="edgeStyle=orthogonalEdgeStyle;rounded=0;orthogonalLoop=1;jettySize=auto;html=1;" edge="1" parent="1" source="QfLtUxeJip6HHkZmtq3Q-22" target="QfLtUxeJip6HHkZmtq3Q-27">
          <mxGeometry relative="1" as="geometry" />
        </mxCell>
        <mxCell id="QfLtUxeJip6HHkZmtq3Q-22" value="counter += 1" style="whiteSpace=wrap;html=1;" vertex="1" parent="1">
          <mxGeometry x="528" y="920" width="120" height="60" as="geometry" />
        </mxCell>
        <mxCell id="QfLtUxeJip6HHkZmtq3Q-32" style="edgeStyle=orthogonalEdgeStyle;rounded=0;orthogonalLoop=1;jettySize=auto;html=1;exitX=1;exitY=0.5;exitDx=0;exitDy=0;entryX=1;entryY=0.5;entryDx=0;entryDy=0;" edge="1" parent="1" source="QfLtUxeJip6HHkZmtq3Q-24" target="QfLtUxeJip6HHkZmtq3Q-20">
          <mxGeometry relative="1" as="geometry">
            <Array as="points">
              <mxPoint x="850" y="1250" />
              <mxPoint x="850" y="780" />
            </Array>
          </mxGeometry>
        </mxCell>
        <mxCell id="QfLtUxeJip6HHkZmtq3Q-24" value="sum = sum + counter" style="whiteSpace=wrap;html=1;" vertex="1" parent="1">
          <mxGeometry x="528" y="1220" width="120" height="60" as="geometry" />
        </mxCell>
        <mxCell id="QfLtUxeJip6HHkZmtq3Q-29" style="edgeStyle=orthogonalEdgeStyle;rounded=0;orthogonalLoop=1;jettySize=auto;html=1;exitX=0.5;exitY=1;exitDx=0;exitDy=0;entryX=0.5;entryY=0;entryDx=0;entryDy=0;" edge="1" parent="1" source="QfLtUxeJip6HHkZmtq3Q-27" target="QfLtUxeJip6HHkZmtq3Q-24">
          <mxGeometry relative="1" as="geometry" />
        </mxCell>
        <mxCell id="QfLtUxeJip6HHkZmtq3Q-35" value="TRUE" style="edgeLabel;html=1;align=center;verticalAlign=middle;resizable=0;points=[];" vertex="1" connectable="0" parent="QfLtUxeJip6HHkZmtq3Q-29">
          <mxGeometry x="-0.3467" y="-1" relative="1" as="geometry">
            <mxPoint as="offset" />
          </mxGeometry>
        </mxCell>
        <mxCell id="QfLtUxeJip6HHkZmtq3Q-56" value="" style="edgeStyle=orthogonalEdgeStyle;rounded=0;orthogonalLoop=1;jettySize=auto;html=1;" edge="1" parent="1" source="QfLtUxeJip6HHkZmtq3Q-27" target="QfLtUxeJip6HHkZmtq3Q-55">
          <mxGeometry relative="1" as="geometry" />
        </mxCell>
        <mxCell id="QfLtUxeJip6HHkZmtq3Q-57" value="FALSE" style="edgeLabel;html=1;align=center;verticalAlign=middle;resizable=0;points=[];" vertex="1" connectable="0" parent="QfLtUxeJip6HHkZmtq3Q-56">
          <mxGeometry x="-0.4267" y="-2" relative="1" as="geometry">
            <mxPoint as="offset" />
          </mxGeometry>
        </mxCell>
        <mxCell id="QfLtUxeJip6HHkZmtq3Q-27" value="counter % 2 == 0" style="rhombus;whiteSpace=wrap;html=1;" vertex="1" parent="1">
          <mxGeometry x="548" y="1050" width="80" height="80" as="geometry" />
        </mxCell>
        <mxCell id="QfLtUxeJip6HHkZmtq3Q-65" style="edgeStyle=orthogonalEdgeStyle;rounded=0;orthogonalLoop=1;jettySize=auto;html=1;exitX=0.5;exitY=1;exitDx=0;exitDy=0;entryX=0.5;entryY=0;entryDx=0;entryDy=0;" edge="1" parent="1" source="QfLtUxeJip6HHkZmtq3Q-37" target="QfLtUxeJip6HHkZmtq3Q-40">
          <mxGeometry relative="1" as="geometry" />
        </mxCell>
        <mxCell id="QfLtUxeJip6HHkZmtq3Q-37" value="" style="ellipse;whiteSpace=wrap;html=1;aspect=fixed;" vertex="1" parent="1">
          <mxGeometry x="110" y="980" width="20" height="20" as="geometry" />
        </mxCell>
        <mxCell id="QfLtUxeJip6HHkZmtq3Q-40" value="end" style="ellipse;whiteSpace=wrap;html=1;" vertex="1" parent="1">
          <mxGeometry x="60" y="1100" width="120" height="80" as="geometry" />
        </mxCell>
        <mxCell id="QfLtUxeJip6HHkZmtq3Q-58" style="edgeStyle=orthogonalEdgeStyle;rounded=0;orthogonalLoop=1;jettySize=auto;html=1;exitX=1;exitY=0.5;exitDx=0;exitDy=0;entryX=1;entryY=0.5;entryDx=0;entryDy=0;" edge="1" parent="1" source="QfLtUxeJip6HHkZmtq3Q-55" target="QfLtUxeJip6HHkZmtq3Q-20">
          <mxGeometry relative="1" as="geometry">
            <Array as="points">
              <mxPoint x="850" y="1090" />
              <mxPoint x="850" y="780" />
            </Array>
          </mxGeometry>
        </mxCell>
        <mxCell id="QfLtUxeJip6HHkZmtq3Q-55" value="sum2 = sum2 + counter" style="whiteSpace=wrap;html=1;" vertex="1" parent="1">
          <mxGeometry x="697" y="1060" width="120" height="60" as="geometry" />
        </mxCell>
        <mxCell id="QfLtUxeJip6HHkZmtq3Q-61" value="write sum1, sum2" style="shape=parallelogram;perimeter=parallelogramPerimeter;whiteSpace=wrap;html=1;fixedSize=1;" vertex="1" parent="1">
          <mxGeometry x="200" y="850" width="120" height="60" as="geometry" />
        </mxCell>
      </root>
    </mxGraphModel>
  </diagram>
</mxfile>
